<svg width="512" height="512" viewBox="0 0 512 512" fill="none" xmlns="http://www.w3.org/2000/svg">
<rect width="512" height="512" fill="white"/>
<path d="M166.996 62C203.732 62 237.047 70.2836 266.94 86.8509C296.833 103.418 320.243 126.288 337.171 155.461C354.278 184.454 362.832 216.868 362.832 252.703C362.832 288.539 354.278 321.043 337.171 350.216C320.243 379.389 296.833 402.259 266.94 418.826C237.047 435.393 203.732 443.677 166.996 443.677H16V62H166.996ZM164.835 353.998C193.468 353.998 217.328 344.364 236.416 325.095C255.505 305.647 265.049 281.516 265.049 252.703C265.049 223.891 255.505 199.85 236.416 180.582C217.328 161.313 193.468 151.679 164.835 151.679H111.082V353.998H164.835Z" fill="#5F51F1"/>
<path d="M434.953 449.89C417.666 449.89 403.169 444.127 391.464 432.602C379.939 420.897 374.177 406.491 374.177 389.383C374.177 372.096 379.939 357.689 391.464 346.164C403.169 334.459 417.666 328.607 434.953 328.607C452.241 328.607 466.737 334.459 478.442 346.164C490.147 357.869 496 372.276 496 389.383C496 406.491 490.147 420.897 478.442 432.602C466.917 444.127 452.421 449.89 434.953 449.89Z" fill="#5F51F1"/>
</svg>
