<svg width="32" height="32" viewBox="0 0 32 32" fill="none" xmlns="http://www.w3.org/2000/svg">
<path d="M24.8401 9.53334C24.8934 10.3467 24.8267 11.2667 24.6667 12.2933L23.6934 18.5467C22.8667 23.76 20.4534 25.52 15.2401 24.7067L8.98674 23.72C7.18674 23.44 5.80007 22.96 4.78674 22.24C2.8534 20.8933 2.2934 18.68 2.82674 15.2667L3.8134 9.01334C4.64007 3.8 7.0534 2.04 12.2667 2.85334L18.5201 3.84C22.7067 4.49334 24.6667 6.2 24.8401 9.53334Z" stroke="#5F51F1" stroke-width="2" stroke-linecap="round" stroke-linejoin="round"/>
<path d="M27.3333 17.96L25.3333 23.9733C23.6666 28.9867 21 30.32 15.9866 28.6533L9.97329 26.6533C6.94662 25.6533 5.26662 24.2667 4.78662 22.24C5.79995 22.96 7.18662 23.44 8.98662 23.72L15.24 24.7067C20.4533 25.52 22.8666 23.76 23.6933 18.5467L24.6666 12.2933C24.8266 11.2667 24.8933 10.3467 24.84 9.53333C28.0266 11.2267 28.72 13.7867 27.3333 17.96Z" stroke="#5F51F1" stroke-width="2" stroke-linecap="round" stroke-linejoin="round"/>
<path d="M10.9867 11.9733C12.268 11.9733 13.3067 10.9346 13.3067 9.65331C13.3067 8.37201 12.268 7.33331 10.9867 7.33331C9.70545 7.33331 8.66675 8.37201 8.66675 9.65331C8.66675 10.9346 9.70545 11.9733 10.9867 11.9733Z" stroke="#5F51F1" stroke-width="2" stroke-linecap="round" stroke-linejoin="round"/>
</svg>
