<svg width="24" height="24" viewBox="0 0 24 24" fill="none" xmlns="http://www.w3.org/2000/svg">
<g id="Icon / Instagram">
<path id="Vector" fill-rule="evenodd" clip-rule="evenodd" d="M16 3.24268H8C5.23858 3.24268 3 5.48126 3 8.24268V16.2427C3 19.0041 5.23858 21.2427 8 21.2427H16C18.7614 21.2427 21 19.0041 21 16.2427V8.24268C21 5.48126 18.7614 3.24268 16 3.24268ZM19.25 16.2427C19.2445 18.0353 17.7926 19.4872 16 19.4927H8C6.20735 19.4872 4.75549 18.0353 4.75 16.2427V8.24268C4.75549 6.45003 6.20735 4.99817 8 4.99268H16C17.7926 4.99817 19.2445 6.45003 19.25 8.24268V16.2427ZM16.75 8.49268C17.3023 8.49268 17.75 8.04496 17.75 7.49268C17.75 6.9404 17.3023 6.49268 16.75 6.49268C16.1977 6.49268 15.75 6.9404 15.75 7.49268C15.75 8.04496 16.1977 8.49268 16.75 8.49268ZM12 7.74268C9.51472 7.74268 7.5 9.7574 7.5 12.2427C7.5 14.728 9.51472 16.7427 12 16.7427C14.4853 16.7427 16.5 14.728 16.5 12.2427C16.5027 11.0484 16.0294 9.90225 15.1849 9.05776C14.3404 8.21327 13.1943 7.74002 12 7.74268ZM9.25 12.2427C9.25 13.7615 10.4812 14.9927 12 14.9927C13.5188 14.9927 14.75 13.7615 14.75 12.2427C14.75 10.7239 13.5188 9.49268 12 9.49268C10.4812 9.49268 9.25 10.7239 9.25 12.2427Z" fill="#080714"/>
</g>
</svg>
