<svg width="37" height="36" viewBox="0 0 37 36" fill="none" xmlns="http://www.w3.org/2000/svg">
<path d="M7.28284 21.1811L12.5417 27.9122C14.701 30.6759 18.6977 31.1666 21.4746 29.009L27.9977 23.9126C30.7614 21.7533 31.2522 17.7567 29.0945 14.9797L23.8208 8.26024C22.7179 6.84864 21.0671 5.96085 19.2824 5.83575L12.6264 5.3409C9.96502 5.13502 7.60246 6.98085 7.14676 9.59816L6.01668 16.1761C5.71791 17.953 6.17998 19.7695 7.28284 21.1811Z" stroke="#5F51F1" stroke-width="2" stroke-linecap="round" stroke-linejoin="round"/>
<path d="M14.8727 17.6802C16.7 17.9045 18.3631 16.6052 18.5875 14.7779C18.8118 12.9507 17.5124 11.2876 15.6852 11.0632C13.858 10.8389 12.1948 12.1382 11.9705 13.9655C11.7461 15.7927 13.0455 17.4558 14.8727 17.6802Z" stroke="#5F51F1" stroke-width="2" stroke-linecap="round"/>
</svg>
